# xmcd
#
# Track frame offsets:
#	150
#	14490
#	30430
#	46197
#	58490
#	73545
#	90810
#	105565
#	122462
#	138432
#	154065
#	167087
#
# Disc length: 2416 seconds
#
# Revision: 0
# Processed by: cddbd v1.4PL0 Copyright (c) Steve Scherf et al.
# Submitted via: dBpowerAMP V4.0
#
DISCID=92096e0c
DTITLE=Kari Tapio - Laulaja
DYEAR=1994
DGENRE=
TTITLE0=Toisenlaiset veet
TTITLE1=Kaikki jäikö viime kertaan
TTITLE2=On yksi ruusu
TTITLE3=Tuhat kilsaa hevonkuuseen
TTITLE4=Tää käsi pitää
TTITLE5=Häipyy etäisyys
TTITLE6=Haavetango
TTITLE7=Sinä sunnuntaina silloin 
TTITLE8=Kuin liito linnun 
TTITLE9=Peluri
TTITLE10=Tyttö kuin taivaasta
TTITLE11=Merten mies
EXTD=
EXTT0=
EXTT1=
EXTT2=
EXTT3=
EXTT4=
EXTT5=
EXTT6=
EXTT7=
EXTT8=
EXTT9=
EXTT10=
EXTT11=
PLAYORDER=
